<svg xmlns="http://www.w3.org/2000/svg" viewBox="0 0 37.234 44.192" width="$SIZE" height="$SIZE">
  <g transform="translate(-98.509,-52.280)">
    <path
      style="fill:$COLOR;fill-opacity:1;fill-rule:nonzero;stroke:none;stroke-width:0.03527778"
      d="m 103.962,57.733 c 7.270,-7.269 19.058,-7.270 26.328,0 7.270,7.270 7.270,19.057 0,26.328 l -11.879,11.879 c -0.709,0.709 -1.858,0.709 -2.569,0 L 103.962,84.061 c -7.270,-7.270 -7.270,-19.057 0,-26.328"
    />
    <path
      style="fill:#eff4f4"
      d="m 107.238,80.731 c 5.460,5.460 14.315,5.460 19.776,0 5.461,-5.461 5.461,-14.314 0,-19.775 -5.460,-5.461 -14.315,-5.461 -19.775,0 -5.461,5.461 -5.461,14.315 -7.1e-4,19.775"
    />
  </g>
  <g transform="translate(-102.33533,-64.748905)" >
    <g transform="matrix(0.03527778,0,0,-0.03527778,94.583514,194.58753)">
      <path
        style="fill:$COLOR"
        d="M 982.48474,3187.6206 750.85987,3375.9728 519.235,3187.6206 v -296.4549 h 463.24974 z m -97.48472,-240.1202 h -285 v 225 h 285 z"
      />
      <path
        d="m 292.51838,496.30429 h 33.9698 l -39.19592,-35.3553 v -48.9535 h -33.9698 v 24.47675 l -44.42205,-38.07495 -117.587759,97.907 h 33.969799 c 0,0 54.69736,-46.19798 83.61796,-70.71061 30.62811,26.01142 83.61797,70.71061 83.61797,70.71061 z"
        style="fill:$COLOR"
        transform="matrix(2.8701967,0,0,-2.7577192,150.41474,4571.1683)"
      />
    </g>
  </g>
</svg>