<svg xmlns="http://www.w3.org/2000/svg" viewBox="0 0 37.234 44.192" width="$SIZE" height="$SIZE">
  <g transform="translate(-98.509,-52.280)">
    <path
      style="fill:$COLOR;fill-opacity:1;fill-rule:nonzero;stroke:none;stroke-width:0.03527778"
      d="m 103.962,57.733 c 7.270,-7.269 19.058,-7.270 26.328,0 7.270,7.270 7.270,19.057 0,26.328 l -11.879,11.879 c -0.709,0.709 -1.858,0.709 -2.569,0 L 103.962,84.061 c -7.270,-7.270 -7.270,-19.057 0,-26.328"
    />
    <path
      style="fill:#eff4f4"
      d="m 107.238,80.731 c 5.460,5.460 14.315,5.460 19.776,0 5.461,-5.461 5.461,-14.314 0,-19.775 -5.460,-5.461 -14.315,-5.461 -19.775,0 -5.461,5.461 -5.461,14.315 -7.1e-4,19.775"
    />
  </g>
  <g transform="translate(-88.47764,-26.1756)">
    <path
      style="fill:$COLOR"
      d="m 113.71274,46.00131 c -0.34293,-1.950407 -1.42114,-3.759166 -2.57182,-5.490985 -1.07794,-1.622206 -2.23451,-3.209392 -3.46241,-4.758798 -0.17832,-0.224966 -0.35759,-0.449336 -0.53897,-0.672662 -0.18138,0.223326 -0.36065,0.447696 -0.53897,0.672662 -1.2279,1.549406 -2.38447,3.136592 -3.46231,4.758798 -1.15073,1.731819 -2.22899,3.540578 -2.57192,5.490985 -0.34289,1.95037 0.14845,4.086472 1.80376,5.519813 1.20991,1.047595 3.00664,1.693814 4.76944,1.693814 1.7628,0 3.55953,-0.646219 4.76944,-1.693814 1.6554,-1.433341 2.1467,-3.569443 1.80376,-5.519813"
    />
  </g>
</svg>
