<svg xmlns="http://www.w3.org/2000/svg" viewBox="0 0 37.234 44.192" width="$SIZE" height="$SIZE">
  <g transform="translate(-98.509,-52.280)">
    <path
      style="fill:$COLOR;fill-opacity:1;fill-rule:nonzero;stroke:none;stroke-width:0.03527778"
      d="m 103.962,57.733 c 7.270,-7.269 19.058,-7.270 26.328,0 7.270,7.270 7.270,19.057 0,26.328 l -11.879,11.879 c -0.709,0.709 -1.858,0.709 -2.569,0 L 103.962,84.061 c -7.270,-7.270 -7.270,-19.057 0,-26.328"
    />
    <path
      style="fill:#eff4f4"
      d="m 107.238,80.731 c 5.460,5.460 14.315,5.460 19.776,0 5.461,-5.461 5.461,-14.314 0,-19.775 -5.460,-5.461 -14.315,-5.461 -19.775,0 -5.461,5.461 -5.461,14.315 -7.1e-4,19.775"
    />
  </g>
  <g transform="translate(-98.509916,-52.280436)" >
    <path
      d="m 117.12697,58.766352 -12.43542,10.054167 h 3.70417 l 8.73125,-7.14375 8.73125,7.14375 h 3.43958 z"
      style="fill:$COLOR"
    />
    <path
      d="m 110.51238,67.774907 2.64584,-2.162461 v 14.05599 h -2.64584 z"
      style="fill:$COLOR"
    />
    <path
      d="m 123.74155,67.746921 -2.64583,-2.167548 v 14.089063 h 2.64583 z"
      style="fill:$COLOR"
    />
  </g>
</svg>
