<svg xmlns="http://www.w3.org/2000/svg" viewBox="0 0 264.938 264.938"><path d="M156.831 70.804c0 13.473-10.904 24.396-24.357 24.396-13.434 0-24.357-10.923-24.357-24.396 0-13.434 10.904-24.337 24.357-24.337s24.357 10.903 24.357 24.337zm46.467-.009c0 8.764-1.661 17.098-4.563 24.836-9.282 27.571-70.736 169.307-70.736 169.307S70.14 110.403 65.118 92.68a70.397 70.397 0 0 1-3.478-21.866C61.64 31.743 93.354 0 132.474 0c39.119-.01 70.833 31.733 70.824 70.795zm-25.637.283c0-24.953-20.214-45.197-45.187-45.197-24.953 0-45.177 20.234-45.177 45.187s20.224 45.187 45.177 45.187c24.972 0 45.187-20.224 45.187-45.177z" fill="#010002"/></svg>