<?xml version="1.0" encoding="UTF-8" standalone="no"?>
<!-- Generator: Adobe Illustrator 16.0.0, SVG Export Plug-In . SVG Version: 6.00 Build 0)  -->

<svg
   xmlns:dc="http://purl.org/dc/elements/1.1/"
   xmlns:cc="http://creativecommons.org/ns#"
   xmlns:rdf="http://www.w3.org/1999/02/22-rdf-syntax-ns#"
   xmlns:svg="http://www.w3.org/2000/svg"
   xmlns="http://www.w3.org/2000/svg"
   xmlns:sodipodi="http://sodipodi.sourceforge.net/DTD/sodipodi-0.dtd"
   xmlns:inkscape="http://www.inkscape.org/namespaces/inkscape"
   version="1.1"
   id="Capa_1"
   x="0px"
   y="0px"
   width="803.79199"
   height="473.16101"
   viewBox="0 0 803.79202 473.16103"
   style="enable-background:new"
   xml:space="preserve"
   sodipodi:docname="halloween-wood-empty-signal-svgrepo-com.svg"
   inkscape:version="0.92.4 5da689c313, 2019-01-14"
   inkscape:export-filename="/home/merito/Dokumenty/wiating/images/log_wood/halloween-wood-empty-signal-svgrepo-com.svg.png"
   inkscape:export-xdpi="96"
   inkscape:export-ydpi="96"><metadata
   id="metadata3843"><rdf:RDF><cc:Work
       rdf:about=""><dc:format>image/svg+xml</dc:format><dc:type
         rdf:resource="http://purl.org/dc/dcmitype/StillImage" /></cc:Work></rdf:RDF></metadata><defs
   id="defs3841">
	
</defs><sodipodi:namedview
   pagecolor="#ffffff"
   bordercolor="#666666"
   borderopacity="1"
   objecttolerance="10"
   gridtolerance="10"
   guidetolerance="10"
   inkscape:pageopacity="0"
   inkscape:pageshadow="2"
   inkscape:window-width="1914"
   inkscape:window-height="1015"
   id="namedview3839"
   showgrid="false"
   inkscape:zoom="0.30110456"
   inkscape:cx="-118.05479"
   inkscape:cy="336.61099"
   inkscape:window-x="0"
   inkscape:window-y="28"
   inkscape:window-maximized="0"
   inkscape:current-layer="layer7" />

<g
   id="g3808"
   transform="translate(-79.521119,-137.9855)">
</g>
<g
   id="g3810"
   transform="translate(-79.521119,-137.9855)">
</g>
<g
   id="g3812"
   transform="translate(-79.521119,-137.9855)">
</g>
<g
   id="g3814"
   transform="translate(-79.521119,-137.9855)">
</g>
<g
   id="g3816"
   transform="translate(-79.521119,-137.9855)">
</g>
<g
   id="g3818"
   transform="translate(-79.521119,-137.9855)">
</g>
<g
   id="g3820"
   transform="translate(-79.521119,-137.9855)">
</g>
<g
   id="g3822"
   transform="translate(-79.521119,-137.9855)">
</g>
<g
   id="g3824"
   transform="translate(-79.521119,-137.9855)">
</g>
<g
   id="g3826"
   transform="translate(-79.521119,-137.9855)">
</g>
<g
   id="g3828"
   transform="translate(-79.521119,-137.9855)">
</g>
<g
   id="g3830"
   transform="translate(-79.521119,-137.9855)">
</g>
<g
   id="g3832"
   transform="translate(-79.521119,-137.9855)">
</g>
<g
   id="g3834"
   transform="translate(-79.521119,-137.9855)">
</g>
<g
   id="g3836"
   transform="translate(-79.521119,-137.9855)">
</g>
<g
   inkscape:groupmode="layer"
   id="layer8"
   inkscape:label="Layer 2"
   transform="translate(-79.521119,-137.9855)"><path
     style="fill:#e4c7b3;fill-opacity:1;stroke:none;stroke-width:0.23483762;stroke-miterlimit:4;stroke-dasharray:none;stroke-opacity:1"
     d="m 109.9841,564.79508 v -16.21723 l 13.77863,-11.66974 c 7.57825,-6.41836 20.16077,-17.06115 27.96116,-23.65066 l 14.18251,-11.98092 43.79129,-6.44381 c 24.08522,-3.54409 43.946,-6.60683 44.13508,-6.80609 0.46897,-0.49418 -90.71191,-37.62073 -93.81742,-38.20007 -1.36215,-0.25411 -13.04433,2.15799 -25.9604,5.36023 l -31.41332,12.18692 -0.67377,-100.37033 c -0.34708,-51.70223 -11.644873,-101.75774 0.32067,-94.62694 0.34168,-0.34168 15.91289,-1.02943 24.45487,-1.52833 8.54198,-0.4989 43.53526,-2.51021 77.76284,-4.46957 34.22758,-1.95936 66.3436,-3.89831 71.36894,-4.30878 l 9.13697,-0.7463 -0.33056,-13.00892 -0.33056,-13.00891 -87.20741,-17.65868 -89.28309,-16.41327 0.31748,-16.26667 -0.92793,-18.54994 374.36455,1.86812 h 371.04344 l 0.31008,37.31098 c 0.24301,29.23939 3.72564,38.4599 2.56205,38.86227 -0.81634,0.28239 -38.24455,4.26284 -78.60726,10.11393 -40.36272,5.8511 -74.146,10.75889 -75.07396,10.90621 -0.92796,0.14732 30.24673,9.45525 69.2771,20.68428 39.03036,11.22904 73.47412,21.1559 76.54169,22.05971 l 5.57739,1.64327 V 445.43907 581.01231 H 481.61463 109.9841 Z"
     id="path4759"
     inkscape:connector-curvature="0"
     sodipodi:nodetypes="ccsscsccscscssscccccccccscsssccccccc" /></g><g
   inkscape:groupmode="layer"
   id="layer10"
   inkscape:label="Layer 4"
   transform="translate(-79.521119,-137.9855)"><path
     style="fill:#f4e3d7;fill-opacity:0.59040587;fill-rule:evenodd;stroke:none;stroke-width:1px;stroke-linecap:butt;stroke-linejoin:miter;stroke-opacity:1"
     d="m 767.91901,273.58583 -223.09573,35.22564 -96.28343,83.36735 41.09659,73.97385 147.94769,23.48377 224.26993,-12.91607 2.34838,-178.47659 z"
     id="path4826"
     inkscape:connector-curvature="0" /><path
     style="fill:#f4e3d7;fill-opacity:0.59040587;fill-rule:evenodd;stroke:none;stroke-width:1px;stroke-linecap:butt;stroke-linejoin:miter;stroke-opacity:1"
     d="m 91.586671,319.37916 157.341209,-8.21932 123.28975,-57.53521 36.39983,-97.45761 -314.682413,-3.52257 v 50.49009 L 203.13454,238.36018 95.109236,261.84394 Z"
     id="path4828"
     inkscape:connector-curvature="0" /></g><g
   inkscape:groupmode="layer"
   id="layer9"
   inkscape:label="Layer 3"
   transform="translate(-79.521119,-137.9855)"><path
     style="fill:#c0a894;fill-opacity:0.59040587;fill-rule:evenodd;stroke:none;stroke-width:1px;stroke-linecap:butt;stroke-linejoin:miter;stroke-opacity:1"
     d="m 100.46344,330.49744 262.36733,-7.47249 200.92688,9.96331 186.81218,-3.3211 114.57814,-5.81194 0.83028,13.28443 -192.62412,4.98165 -127.03228,0.83028 -181.83053,-10.79359 -264.02788,8.30276 z"
     id="path4766"
     inkscape:connector-curvature="0" /><path
     style="fill:#c0a894;fill-opacity:0.59040587;fill-rule:evenodd;stroke:none;stroke-width:1px;stroke-linecap:butt;stroke-linejoin:miter;stroke-opacity:1"
     d="m 92.18494,423.46063 261.94672,-16.62443 201.15218,2.94499 186.58248,-9.83872 114.30551,-9.80712 1.2934,13.24736 -192.33293,11.70109 -126.92591,5.26314 -182.09645,-4.44122 -263.577288,17.51215 z"
     id="path4766-3"
     inkscape:connector-curvature="0" /><path
     style="fill:#c0a894;fill-opacity:0.59040587;fill-rule:evenodd;stroke:none;stroke-width:1px;stroke-linecap:butt;stroke-linejoin:miter;stroke-opacity:1"
     d="m 230.81683,489.08022 184.32135,27.39912 239.94987,-4.98166 160.24334,52.30741 23.24774,18.26608 9.47822,-0.26097 -28.62083,-24.21763 -158.53653,-54.39766 -240.78015,4.15139 -189.30301,-29.05967 z"
     id="path4819"
     inkscape:connector-curvature="0"
     sodipodi:nodetypes="ccccccccccc" /><path
     style="fill:#c0a894;fill-opacity:0.59040587;fill-rule:evenodd;stroke:none;stroke-width:1px;stroke-linecap:butt;stroke-linejoin:miter;stroke-opacity:1"
     d="m 281.84932,243.28892 134.40404,-0.11802 179.78434,-15.88313 64.58959,3.26208 203.04431,-29.96116 -0.59932,8.68839 -200.82615,29.57555 -67.83948,-3.5053 -173.07448,16.78465 -141.1139,-3.41677 z"
     id="path4821"
     inkscape:connector-curvature="0"
     sodipodi:nodetypes="ccccccccccc" /><path
     style="opacity:0.98999999;fill:none;fill-rule:evenodd;stroke:none;stroke-width:1px;stroke-linecap:butt;stroke-linejoin:miter;stroke-opacity:1"
     d="m 733.86756,266.5407 -258.32138,51.66427 -7.04513,124.46394 274.76001,48.14171 119.76719,-36.39983 1.17419,-156.16701 z"
     id="path4823"
     inkscape:connector-curvature="0" /></g><g
   inkscape:groupmode="layer"
   id="layer7"
   inkscape:label="Layer 1"
   transform="translate(-79.521119,-137.9855)"><g
     transform="translate(16.438119,62.233502)"
     id="g3847"
     style="fill:#522d1a;fill-opacity:1"
     inkscape:export-xdpi="96"
     inkscape:export-ydpi="96"><path
       d="m 63.083,472.414 v 14.174 31.729 30.592 l 803.792,0.004 V 518.321 247.785 224.762 l -22.124,-6.374 -17.929,-5.164 13.885,-2.03 26.168,-3.824 V 180.924 106.344 75.752 H 63.083 v 30.592 31.1 25 l 24.5,4.979 46.434,9.436 -42.115,2.445 -28.819,1.674 v 28.867 188.65 38.95 l 37.841,-9.229 20.093,-4.9 -47.12,39.933 z m 30.593,14.174 55.813,-47.299 90.247,-13.259 -96.875,-39.528 -49.185,11.996 V 209.846 L 269.308,199.649 V 173.136 L 93.676,137.445 v -31.1 h 299.395 30.597 82.742 30.598 299.274 v 74.58 l -153.979,22.503 153.979,44.357 V 518.318 H 545.216 514.618 416.115 385.518 93.676 Z"
       id="path3804"
       inkscape:connector-curvature="0"
       sodipodi:nodetypes="ccccccccccccccccccccccccccccccccccccccccccccccccccccccc"
       style="fill:#522d1a;fill-opacity:1" /></g></g></svg>