<?xml version="1.0" encoding="UTF-8" standalone="no"?>
<svg
   xmlns:dc="http://purl.org/dc/elements/1.1/"
   xmlns:cc="http://creativecommons.org/ns#"
   xmlns:rdf="http://www.w3.org/1999/02/22-rdf-syntax-ns#"
   xmlns:svg="http://www.w3.org/2000/svg"
   xmlns="http://www.w3.org/2000/svg"
   id="svg1123"
   version="1.1"
   viewBox="0 0 37.234104 44.192669"
   height="44.192669mm"
   width="37.234104mm">
  <defs
     id="defs1117" />
  <metadata
     id="metadata1120">
    <rdf:RDF>
      <cc:Work
         rdf:about="">
        <dc:format>image/svg+xml</dc:format>
        <dc:type
           rdf:resource="http://purl.org/dc/dcmitype/StillImage" />
        <dc:title></dc:title>
      </cc:Work>
    </rdf:RDF>
  </metadata>
  <g
     transform="translate(-102.33533,-64.748905)"
     id="layer1">
    <path
       id="path3760"
       style="fill:#ff0000;fill-opacity:1;fill-rule:nonzero;stroke:none;stroke-width:0.03527778"
       d="m 107.78786,70.201571 c 7.27004,-7.269692 19.05811,-7.27075 26.32851,0 7.27075,7.270396 7.27075,19.05776 0,26.328121 L 122.23658,108.4092 c -0.70979,0.70983 -1.85879,0.70983 -2.56928,0 L 107.78786,96.529692 c -7.27004,-7.270361 -7.27004,-19.057725 0,-26.328121" />
    <path
       id="path3762"
       style="fill:#eff4f4;fill-opacity:1;fill-rule:nonzero;stroke:none;stroke-width:0.03527778"
       d="m 111.06411,93.199929 c 5.46064,5.460894 14.31537,5.460894 19.77602,0 5.461,-5.461423 5.461,-14.314381 0,-19.775734 -5.46065,-5.461352 -14.31538,-5.461352 -19.77532,0 -5.461,5.461353 -5.461,14.315017 -7.1e-4,19.775734" />
    <g
       id="g1008"
       transform="matrix(0.03527778,0,0,-0.03527778,94.583514,194.58753)">
      <g
         id="g1030">
        <path
           style="fill:#ff0000;fill-opacity:1;stroke-width:2.81339574"
           id="path4552"
           d="M 982.48474,3187.6206 750.85987,3375.9728 519.235,3187.6206 v -296.4549 h 463.24974 z m -97.48472,-240.1202 h -285 v 225 h 285 z"
           class="st2" />
        <path
           id="polygon4554"
           d="m 292.51838,496.30429 h 33.9698 l -39.19592,-35.3553 v -48.9535 h -33.9698 v 24.47675 l -44.42205,-38.07495 -117.587759,97.907 h 33.969799 c 0,0 54.69736,-46.19798 83.61796,-70.71061 30.62811,26.01142 83.61797,70.71061 83.61797,70.71061 z"
           style="fill:#ff0000;fill-opacity:1"
           transform="matrix(2.8701967,0,0,-2.7577192,150.41474,4571.1683)" />
      </g>
    </g>
  </g>
</svg>
