<?xml version="1.0" encoding="UTF-8" standalone="no"?>
<svg
   xmlns:dc="http://purl.org/dc/elements/1.1/"
   xmlns:cc="http://creativecommons.org/ns#"
   xmlns:rdf="http://www.w3.org/1999/02/22-rdf-syntax-ns#"
   xmlns:svg="http://www.w3.org/2000/svg"
   xmlns="http://www.w3.org/2000/svg"
   id="svg1123"
   version="1.1"
   viewBox="0 0 37.234105 44.192665"
   height="44.192665mm"
   width="37.234104mm">
  <defs
     id="defs1117" />
  <metadata
     id="metadata1120">
    <rdf:RDF>
      <cc:Work
         rdf:about="">
        <dc:format>image/svg+xml</dc:format>
        <dc:type
           rdf:resource="http://purl.org/dc/dcmitype/StillImage" />
        <dc:title></dc:title>
      </cc:Work>
    </rdf:RDF>
  </metadata>
  <g
     transform="translate(-101.22294,-24.716848)"
     id="layer1">
    <path
       id="path3760-3-3-7"
       style="fill:#008080;fill-opacity:1;fill-rule:nonzero;stroke:none;stroke-width:0.03527777"
       d="m 106.67547,30.169512 c 7.27004,-7.26969 19.05811,-7.270747 26.32851,0 7.27075,7.270398 7.27075,19.057763 0,26.328123 l -11.87979,11.879508 c -0.70979,0.709827 -1.85879,0.709827 -2.56928,0 L 106.67547,56.497635 c -7.27004,-7.27036 -7.27004,-19.057725 0,-26.328123" />
    <path
       id="path3762-6-5-5"
       style="fill:#eff4f4;fill-opacity:1;fill-rule:nonzero;stroke:none;stroke-width:0.03527777"
       d="m 109.95172,53.167872 c 5.46064,5.460894 14.31537,5.460894 19.77601,0 5.461,-5.461423 5.461,-14.314382 0,-19.775734 -5.46064,-5.461354 -14.31537,-5.461354 -19.77531,0 -5.461,5.461352 -5.461,14.315015 -7.1e-4,19.775734" />
    <path
       id="polygon4554-5-2-9"
       d="m 120.0421,31.961742 -11.64166,9.789583 h 3.17499 c 0,0 5.84767,-4.772549 8.46667,-6.879166 3.08193,2.490613 5.52676,4.717034 8.20209,6.879166 h 3.175 z"
       style="fill:#a05a2c;fill-opacity:1;stroke-width:0.09862447" />
    <g
       style="fill:#a05a2c;fill-opacity:1"
       id="g6454"
       transform="matrix(0.00533416,0,0,-0.00411429,179.30903,4.7791581)">
      <path
         style="fill:#a05a2c;fill-opacity:1;stroke:none;stroke-width:11.29567909;stroke-miterlimit:4;stroke-dasharray:none;stroke-opacity:1"
         d="m -12450.08,-8857.6716 347.212,385.8507 1934.467,-2893.8801 h -545.619 z"
         id="rect5661-2" />
      <g
         style="fill:#a05a2c;fill-opacity:1"
         id="g6449">
        <path
           id="rect5661-1-2"
           d="m -9821.1894,-8857.6716 -347.2116,385.8507 -1884.866,-2893.8801 h 496.018 z"
           style="fill:#a05a2c;fill-opacity:1;stroke:none;stroke-width:11.29567909;stroke-miterlimit:4;stroke-dasharray:none;stroke-opacity:1" />
      </g>
    </g>
    <path
       id="path6442"
       d="m 119.33179,68.758633 c -0.27164,-0.07927 -2.55056,-2.277562 -7.22195,-6.966455 -5.7602,-5.781787 -6.95243,-7.043272 -7.64135,-8.08526 -1.4377,-2.174525 -2.37971,-4.45721 -2.88788,-6.997908 -0.34899,-1.744864 -0.31545,-5.218375 0.0677,-7.005942 1.13179,-5.280999 4.17447,-9.581996 8.69395,-12.289401 2.90665,-1.741236 5.97464,-2.573816 9.49415,-2.576491 4.99524,-0.0038 9.30773,1.740228 12.88498,5.210836 3.69259,3.582514 5.61861,8.117176 5.62848,13.251855 0.007,3.860504 -0.98619,7.13722 -3.16614,10.441217 -0.77061,1.167966 -1.71454,2.171237 -7.63473,8.114699 -5.32576,5.346695 -6.85409,6.809375 -7.2217,6.911502 -0.52553,0.146002 -0.46362,0.146539 -0.99546,-0.0087 z m 4.04751,-11.902726 c 0.61153,-0.160853 1.65495,-0.545843 2.31871,-0.855533 3.79222,-1.769319 6.42932,-4.860107 7.67577,-8.99634 0.33214,-1.102165 0.3595,-1.37246 0.3683,-3.638021 0.008,-2.135042 -0.0279,-2.583932 -0.28347,-3.517212 -1.27595,-4.65931 -4.48804,-8.185669 -8.89924,-9.769917 -3.5756,-1.284153 -7.31589,-1.085517 -10.78383,0.572698 -2.9556,1.413233 -5.20002,3.671255 -6.60861,6.648657 -3.77196,7.972957 0.65185,17.354703 9.23205,19.578798 2.06492,0.535252 4.89314,0.525881 6.98032,-0.02312 z"
       style="fill:#a05a2c;fill-opacity:1;stroke:#f71000;stroke-width:0.02645833;stroke-miterlimit:4;stroke-dasharray:none;stroke-opacity:1" />
  </g>
</svg>
