<?xml version="1.0" encoding="UTF-8" standalone="no"?>
<svg
   xmlns:dc="http://purl.org/dc/elements/1.1/"
   xmlns:cc="http://creativecommons.org/ns#"
   xmlns:rdf="http://www.w3.org/1999/02/22-rdf-syntax-ns#"
   xmlns:svg="http://www.w3.org/2000/svg"
   xmlns="http://www.w3.org/2000/svg"
   id="svg1123"
   version="1.1"
   viewBox="0 0 37.234105 44.192665"
   height="44.192665mm"
   width="37.234104mm">
  <defs
     id="defs1117" />
  <metadata
     id="metadata1120">
    <rdf:RDF>
      <cc:Work
         rdf:about="">
        <dc:format>image/svg+xml</dc:format>
        <dc:type
           rdf:resource="http://purl.org/dc/dcmitype/StillImage" />
        <dc:title></dc:title>
      </cc:Work>
    </rdf:RDF>
  </metadata>
  <g
     transform="translate(-130.3635,-46.906372)"
     id="layer1">
    <path
       id="path3760-3-3-2-5"
       style="fill:#000000;fill-opacity:1;fill-rule:nonzero;stroke:none;stroke-width:0.03527777"
       d="m 135.81603,52.359037 c 7.27004,-7.269689 19.05811,-7.270751 26.32851,0 7.27075,7.270397 7.27075,19.057763 0,26.328122 L 150.26475,90.56667 c -0.70979,0.709824 -1.85879,0.709824 -2.56928,0 L 135.81603,78.687159 c -7.27004,-7.270359 -7.27004,-19.057725 0,-26.328122" />
    <path
       id="path5851-2"
       d="m 148.45666,91.006125 c -0.10924,-0.03579 -0.29867,-0.129625 -0.42095,-0.208524 -0.27244,-0.175778 -12.76599,-12.678545 -13.25697,-13.26674 -2.57187,-3.081123 -4.04497,-6.704029 -4.34559,-10.68744 -0.0673,-0.892332 -0.0308,-2.592322 0.0743,-3.46114 0.48162,-3.978663 2.15821,-7.624909 4.80668,-10.45358 3.18489,-3.401585 7.07595,-5.362318 11.70583,-5.898652 0.85304,-0.09882 2.91339,-0.11265 3.71661,-0.02495 3.60159,0.393236 6.69646,1.601104 9.46956,3.695794 1.45738,1.100839 2.87655,2.572256 3.98906,4.135883 2.84539,3.999185 3.96956,9.14817 3.07073,14.064627 -0.60624,3.315967 -2.10508,6.383052 -4.37461,8.951759 -0.27523,0.311504 -3.28575,3.347281 -6.69006,6.746163 -6.95676,6.945688 -6.37759,6.422631 -7.1476,6.455077 -0.25724,0.01085 -0.46882,-0.0063 -0.59704,-0.04827 z m 2.49044,-11.67479 c 1.61165,-0.242745 2.9127,-0.649018 4.29687,-1.341761 3.46706,-1.735174 6.01775,-4.77639 7.15581,-8.531956 0.95693,-3.157835 0.72203,-6.665848 -0.65226,-9.740808 -1.2126,-2.713192 -3.36671,-5.050246 -6.00175,-6.511464 -2.2727,-1.260292 -5.03467,-1.882599 -7.59061,-1.710268 -3.53786,0.238534 -6.62672,1.631451 -9.08819,4.098307 -4.25398,4.26329 -5.30358,10.749965 -2.61023,16.131563 2.20969,4.415181 6.51535,7.305402 11.49694,7.717443 0.60525,0.05006 2.35461,-0.01484 2.99342,-0.111056 z"
       style="fill:#000000;fill-opacity:1;stroke:none;stroke-width:0.00935443;stroke-miterlimit:4;stroke-dasharray:none;stroke-opacity:1" />
    <ellipse
       ry="10.583333"
       rx="10.583331"
       cy="65.381416"
       cx="149.02852"
       id="path994"
       style="fill:#ffffff;fill-opacity:1;stroke:none;stroke-width:0.05291666;stroke-miterlimit:4;stroke-dasharray:none;stroke-opacity:1" />
    <ellipse
       ry="4.5971355"
       rx="4.5971346"
       cy="65.282204"
       cx="149.06158"
       id="path996"
       style="fill:#000000;fill-opacity:1;stroke:none;stroke-width:0.05291666;stroke-miterlimit:4;stroke-dasharray:none;stroke-opacity:1" />
  </g>
</svg>
