<?xml version="1.0" encoding="UTF-8" standalone="no"?>
<svg
   xmlns:dc="http://purl.org/dc/elements/1.1/"
   xmlns:cc="http://creativecommons.org/ns#"
   xmlns:rdf="http://www.w3.org/1999/02/22-rdf-syntax-ns#"
   xmlns:svg="http://www.w3.org/2000/svg"
   xmlns="http://www.w3.org/2000/svg"
   xmlns:sodipodi="http://sodipodi.sourceforge.net/DTD/sodipodi-0.dtd"
   xmlns:inkscape="http://www.inkscape.org/namespaces/inkscape"
   inkscape:version="1.0 (4035a4fb49, 2020-05-01)"
   sodipodi:docname="waterfront.svg"
   width="37.2341mm"
   height="44.192669mm"
   viewBox="0 0 37.2341 44.192669"
   version="1.1"
   id="svg1123">
  <sodipodi:namedview
     inkscape:current-layer="svg1123"
     inkscape:window-maximized="0"
     inkscape:window-y="26"
     inkscape:window-x="1920"
     inkscape:cy="72.970997"
     inkscape:cx="111.14154"
     inkscape:zoom="7.6933218"
     showgrid="false"
     id="namedview434"
     inkscape:window-height="1382"
     inkscape:window-width="2554"
     inkscape:pageshadow="2"
     inkscape:pageopacity="0"
     guidetolerance="10"
     gridtolerance="10"
     objecttolerance="10"
     borderopacity="1"
     bordercolor="#666666"
     pagecolor="#ffffff" />
  <defs
     id="defs1117" />
  <metadata
     id="metadata1120">
    <rdf:RDF>
      <cc:Work
         rdf:about="">
        <dc:format>image/svg+xml</dc:format>
        <dc:type
           rdf:resource="http://purl.org/dc/dcmitype/StillImage" />
        <dc:title></dc:title>
      </cc:Work>
    </rdf:RDF>
  </metadata>
  <path
     id="path3760-3"
     style="fill:#55ddff;fill-opacity:1;fill-rule:nonzero;stroke:none;stroke-width:0.0352778"
     d="m 5.45253,5.452666 c 7.270046,-7.269692 19.058116,-7.27075 26.328506,0 7.27075,7.270396 7.27075,19.05776 0,26.328121 l -11.87979,11.879508 c -0.70979,0.70983 -1.85878,0.70983 -2.56928,0 L 5.45253,31.780787 c -7.27004,-7.270361 -7.27004,-19.057725 0,-26.328121" />
  <path
     id="path3762-6"
     style="fill:#eff4f4;fill-opacity:1;fill-rule:nonzero;stroke:none;stroke-width:0.0352778"
     d="m 8.728776,28.451024 c 5.46065,5.460894 14.31537,5.460894 19.77602,0 5.461,-5.461423 5.461,-14.314381 0,-19.775734 -5.46065,-5.461352 -14.31537,-5.461352 -19.77531,0 -5.460996,5.461353 -5.460996,14.315017 -7.2e-4,19.775734" />
  <g
     transform="matrix(0.04220272,0,0,0.04220272,10.417859,9.8221765)"
     id="g56" />
  <g
     transform="matrix(0.04220272,0,0,0.04220272,10.417859,9.8221765)"
     id="g58" />
  <g
     transform="matrix(0.04220272,0,0,0.04220272,10.417859,9.8221765)"
     id="g60" />
  <g
     transform="matrix(0.04220272,0,0,0.04220272,10.417859,9.8221765)"
     id="g62" />
  <g
     transform="matrix(0.04220272,0,0,0.04220272,10.417859,9.8221765)"
     id="g64" />
  <g
     transform="matrix(0.04220272,0,0,0.04220272,10.417859,9.8221765)"
     id="g66" />
  <g
     transform="matrix(0.04220272,0,0,0.04220272,10.417859,9.8221765)"
     id="g68" />
  <g
     transform="matrix(0.04220272,0,0,0.04220272,10.417859,9.8221765)"
     id="g70" />
  <g
     transform="matrix(0.04220272,0,0,0.04220272,10.417859,9.8221765)"
     id="g72" />
  <g
     transform="matrix(0.04220272,0,0,0.04220272,10.417859,9.8221765)"
     id="g74" />
  <g
     transform="matrix(0.04220272,0,0,0.04220272,10.417859,9.8221765)"
     id="g76" />
  <g
     transform="matrix(0.04220272,0,0,0.04220272,10.417859,9.8221765)"
     id="g78" />
  <g
     transform="matrix(0.04220272,0,0,0.04220272,10.417859,9.8221765)"
     id="g80" />
  <g
     transform="matrix(0.04220272,0,0,0.04220272,10.417859,9.8221765)"
     id="g82" />
  <g
     transform="matrix(0.04220272,0,0,0.04220272,10.417859,9.8221765)"
     id="g84" />
  <g
     style="fill:#2ad4ff"
     transform="matrix(0.05236175,0,0,0.05236175,8.5634844,8.5093722)"
     id="g6">
    <g
       style="fill:#2ad4ff"
       id="g4">
      <path
         style="fill:#2ad4ff"
         d="M 379.32,42.158 341.856,4.694 c -6.248,-6.248 -16.376,-6.248 -22.624,0 -6.248,6.248 -6.248,16.376 0,22.624 l 7.416,7.416 -121.992,121.984 c -11.976,-7.984 -25.344,-11.856 -39.92,-11.376 -44.592,1.304 -84.408,43.736 -88.824,48.592 L 4.688,265.158 c -3,3.008 -4.688,7.08 -4.688,11.32 0,4.24 1.688,8.312 4.688,11.312 l 45.608,45.568 c 0.056,0.064 0.096,0.128 0.16,0.192 0.064,0.064 0.136,0.096 0.192,0.16 l 45.656,45.616 c 3.12,3.112 7.208,4.672 11.296,4.672 4.096,0 8.192,-1.56 11.312,-4.688 l 71.264,-71.256 c 4.648,-4.264 47.152,-44.512 48.328,-89.224 0.376,-14.416 -3.424,-27.624 -11.248,-39.456 l 122.016,-122.016 7.424,7.424 c 3.128,3.128 7.216,4.688 11.312,4.688 4.096,0 8.184,-1.56 11.312,-4.688 6.248,-6.248 6.248,-16.376 0,-22.624 z M 168.408,284.59 c -0.2,0.184 -0.4,0.376 -0.6,0.568 l -60.216,60.216 -23.184,-23.168 67.128,-67.128 c 6.248,-6.248 6.248,-16.376 0,-22.624 -6.248,-6.248 -16.384,-6.248 -22.624,0 l -67.136,67.136 -23.144,-23.12 60.2,-60.2 c 0.224,-0.216 0.432,-0.448 0.648,-0.68 9.224,-10.368 39.104,-37.472 66.192,-38.264 10.784,-0.28 20.192,3.672 28.72,12.168 0.016,0.016 0.032,0.04 0.048,0.056 0.016,0.016 0.04,0.032 0.056,0.048 8.344,8.368 12.28,17.632 12.024,28.32 -0.664,26.968 -27.728,57.256 -38.112,66.672 z"
         id="path2" />
    </g>
  </g>
  <g
     transform="matrix(0.03439536,0,0,0.03439536,15.556568,16.785953)"
     id="g8" />
  <g
     transform="matrix(0.03439536,0,0,0.03439536,15.556568,16.785953)"
     id="g10" />
  <g
     transform="matrix(0.03439536,0,0,0.03439536,15.556568,16.785953)"
     id="g12" />
  <g
     transform="matrix(0.03439536,0,0,0.03439536,15.556568,16.785953)"
     id="g14" />
  <g
     transform="matrix(0.03439536,0,0,0.03439536,15.556568,16.785953)"
     id="g16" />
  <g
     transform="matrix(0.03439536,0,0,0.03439536,15.556568,16.785953)"
     id="g18" />
  <g
     transform="matrix(0.03439536,0,0,0.03439536,15.556568,16.785953)"
     id="g20" />
  <g
     transform="matrix(0.03439536,0,0,0.03439536,15.556568,16.785953)"
     id="g22" />
  <g
     transform="matrix(0.03439536,0,0,0.03439536,15.556568,16.785953)"
     id="g24" />
  <g
     transform="matrix(0.03439536,0,0,0.03439536,15.556568,16.785953)"
     id="g26" />
  <g
     transform="matrix(0.03439536,0,0,0.03439536,15.556568,16.785953)"
     id="g28" />
  <g
     transform="matrix(0.03439536,0,0,0.03439536,15.556568,16.785953)"
     id="g30" />
  <g
     transform="matrix(0.03439536,0,0,0.03439536,15.556568,16.785953)"
     id="g32" />
  <g
     transform="matrix(0.03439536,0,0,0.03439536,15.556568,16.785953)"
     id="g34" />
  <g
     transform="matrix(0.03439536,0,0,0.03439536,15.556568,16.785953)"
     id="g36" />
</svg>
