<?xml version="1.0" encoding="UTF-8" standalone="no"?>
<svg
   xmlns:dc="http://purl.org/dc/elements/1.1/"
   xmlns:cc="http://creativecommons.org/ns#"
   xmlns:rdf="http://www.w3.org/1999/02/22-rdf-syntax-ns#"
   xmlns:svg="http://www.w3.org/2000/svg"
   xmlns="http://www.w3.org/2000/svg"
   id="svg1123"
   version="1.1"
   viewBox="0 0 37.169804 44.110702"
   height="44.110703mm"
   width="37.169804mm">
  <defs
     id="defs1117" />
  <metadata
     id="metadata1120">
    <rdf:RDF>
      <cc:Work
         rdf:about="">
        <dc:format>image/svg+xml</dc:format>
        <dc:type
           rdf:resource="http://purl.org/dc/dcmitype/StillImage" />
        <dc:title></dc:title>
      </cc:Work>
    </rdf:RDF>
  </metadata>
  <g
     transform="translate(-88.47764,-26.1756)"
     id="layer1">
    <path
       id="path5746"
       style="fill:#4896d6;fill-opacity:1;fill-rule:nonzero;stroke:none;stroke-width:0.00412681"
       d="m 113.71274,46.00131 c -0.34293,-1.950407 -1.42114,-3.759166 -2.57182,-5.490985 -1.07794,-1.622206 -2.23451,-3.209392 -3.46241,-4.758798 -0.17832,-0.224966 -0.35759,-0.449336 -0.53897,-0.672662 -0.18138,0.223326 -0.36065,0.447696 -0.53897,0.672662 -1.2279,1.549406 -2.38447,3.136592 -3.46231,4.758798 -1.15073,1.731819 -2.22899,3.540578 -2.57192,5.490985 -0.34289,1.95037 0.14845,4.086472 1.80376,5.519813 1.20991,1.047595 3.00664,1.693814 4.76944,1.693814 1.7628,0 3.55953,-0.646219 4.76944,-1.693814 1.6554,-1.433341 2.1467,-3.569443 1.80376,-5.519813" />
    <path
       id="path5851"
       d="m 106.53521,70.234847 c -0.10924,-0.03579 -0.29866,-0.129622 -0.42095,-0.208523 -0.27243,-0.175779 -12.765993,-12.678542 -13.256963,-13.266737 -2.57188,-3.081126 -4.044976,-6.704032 -4.345593,-10.687443 -0.06735,-0.892333 -0.03083,-2.592323 0.07435,-3.461139 0.481626,-3.978663 2.158223,-7.624911 4.806683,-10.45358 3.18489,-3.401584 7.075953,-5.362317 11.705823,-5.898651 0.85305,-0.09882 2.9134,-0.112651 3.71662,-0.02495 3.60159,0.393232 6.69646,1.6011 9.46956,3.695793 1.45737,1.100837 2.87656,2.572254 3.98906,4.13588 2.84539,3.999186 3.96957,9.148169 3.07073,14.064627 -0.60623,3.315968 -2.10508,6.383055 -4.37461,8.95176 -0.27523,0.311507 -3.28575,3.347281 -6.69006,6.746166 -6.95676,6.945688 -6.37758,6.422628 -7.14759,6.455076 -0.25724,0.01085 -0.46882,-0.0063 -0.59705,-0.04828 z m 2.49045,-11.674789 c 1.61165,-0.242742 2.9127,-0.649015 4.29688,-1.341758 3.46705,-1.735175 6.01774,-4.776391 7.1558,-8.531961 0.95693,-3.157834 0.72203,-6.665846 -0.65226,-9.740804 -1.2126,-2.713193 -3.36671,-5.050248 -6.00175,-6.511467 -2.27271,-1.260291 -5.03467,-1.882599 -7.59061,-1.710268 -3.53786,0.238536 -6.626723,1.631452 -9.088193,4.098309 -4.25398,4.263291 -5.30359,10.749962 -2.61023,16.131564 2.20968,4.415179 6.515343,7.305403 11.496943,7.717441 0.60525,0.05006 2.35461,-0.01484 2.99342,-0.111056 z"
       style="fill:#4896d6;fill-opacity:1;stroke:none;stroke-width:0.00935443;stroke-miterlimit:4;stroke-dasharray:none;stroke-opacity:1" />
  </g>
</svg>
