<?xml version="1.0" standalone="no"?>
<!DOCTYPE svg PUBLIC "-//W3C//DTD SVG 20010904//EN"
 "http://www.w3.org/TR/2001/REC-SVG-20010904/DTD/svg10.dtd">
<svg version="1.0" xmlns="http://www.w3.org/2000/svg"
 width="260.000000pt" height="260.000000pt" viewBox="0 0 260.000000 260.000000"
 preserveAspectRatio="xMidYMid meet">
<metadata>
Created by potrace 1.11, written by Peter Selinger 2001-2013
</metadata>
<g transform="translate(0.000000,260.000000) scale(0.100000,-0.100000)"
fill="#000000" stroke="none">
<path d="M1177 2589 c-291 -31 -562 -158 -770 -358 -117 -113 -197 -221 -262
-356 -90 -184 -123 -312 -132 -510 l-5 -130 172 250 c94 138 183 269 198 292
15 23 29 42 32 43 3 0 28 -37 57 -81 l51 -81 90 133 c49 74 112 166 139 206
l50 72 130 -201 c72 -111 134 -203 139 -205 8 -2 186 267 192 291 1 6 -34 65
-78 130 -59 88 -77 122 -68 128 7 4 15 8 18 7 3 0 38 -49 79 -109 41 -61 77
-110 80 -110 3 0 35 45 70 100 68 108 77 118 93 102 7 -7 -13 -46 -66 -127
l-76 -116 106 -155 107 -154 119 197 c65 109 129 215 140 236 12 20 24 37 27
37 3 0 58 -82 121 -183 63 -100 129 -206 148 -236 l34 -53 58 97 c32 53 61
100 66 105 5 5 79 -102 171 -248 89 -141 168 -265 175 -275 12 -16 13 -4 6 75
-36 450 -297 841 -696 1046 -220 114 -485 165 -715 141z"/>
<path d="M1733 1928 c-40 -67 -71 -123 -70 -124 1 -2 31 4 65 13 l63 16 38
-37 38 -37 30 57 30 57 -56 88 c-31 49 -58 88 -61 88 -3 0 -37 -55 -77 -121z"/>
<path d="M741 1921 l-53 -80 27 -45 27 -46 39 30 38 31 52 -15 c29 -9 56 -16
61 -16 6 0 -111 190 -132 213 -4 4 -30 -28 -59 -72z"/>
<path d="M1272 1900 c-11 -18 -10 -20 18 -20 28 0 29 2 18 20 -7 11 -15 20
-18 20 -3 0 -11 -9 -18 -20z"/>
<path d="M1221 1821 c-12 -16 -21 -32 -21 -35 0 -3 41 -6 90 -6 50 0 90 3 90
6 0 3 -9 19 -21 35 -18 25 -27 29 -69 29 -42 0 -51 -4 -69 -29z"/>
<path d="M1911 1780 c-18 -33 -35 -60 -39 -60 -3 0 -25 18 -47 40 l-41 41 -73
-18 c-79 -19 -77 -17 -141 -129 l-23 -40 143 -211 144 -212 20 32 c10 18 68
112 127 211 l109 179 -71 113 c-39 63 -72 114 -74 114 -1 0 -17 -27 -34 -60z"/>
<path d="M602 1717 l-63 -93 121 -190 c66 -104 122 -193 125 -199 3 -7 7 -7
10 0 3 6 59 92 125 193 66 101 120 186 120 190 0 4 -18 34 -40 67 -38 58 -40
59 -110 76 l-70 16 -41 -35 -41 -36 -19 25 c-10 13 -24 36 -30 52 -6 15 -14
27 -18 27 -3 0 -34 -42 -69 -93z"/>
<path d="M2151 1642 c-50 -82 -91 -153 -91 -157 0 -4 19 -30 42 -59 23 -28 43
-53 44 -55 2 -2 30 14 64 34 l61 37 110 -24 c60 -13 109 -23 109 -21 0 3 -239
385 -245 391 -1 2 -44 -64 -94 -146z"/>
<path d="M298 1593 c-59 -87 -106 -158 -105 -159 1 -1 45 5 97 14 l95 15 53
-33 54 -33 39 44 c22 25 37 51 35 61 -5 20 -148 248 -156 248 -3 -1 -53 -71
-112 -157z"/>
<path d="M1158 1725 c-10 -13 -18 -25 -18 -27 0 -2 68 -3 150 -3 83 0 150 2
150 5 0 3 -7 16 -16 28 -14 21 -22 22 -132 22 -112 -1 -118 -2 -134 -25z"/>
<path d="M895 1320 c-126 -193 -231 -350 -234 -350 -33 1 -26 23 39 119 l68
104 -22 36 c-13 20 -53 82 -88 139 l-66 102 -48 -55 -49 -55 -58 36 -58 36
-107 -17 -107 -17 -76 -112 -77 -111 13 -80 c45 -283 170 -520 382 -726 157
-153 349 -261 568 -321 117 -31 125 -32 325 -32 198 0 209 1 323 31 369 99
667 341 836 681 70 139 131 363 131 479 0 27 -42 112 -74 150 -1 2 -57 14
-123 29 l-120 25 -64 -40 -64 -41 -30 37 c-57 70 -73 88 -78 83 -3 -3 -44 -70
-92 -149 l-87 -143 55 -81 c31 -45 53 -85 51 -89 -13 -20 -34 -3 -80 64 -262
386 -399 586 -412 601 -13 15 -36 17 -182 17 l-167 0 -228 -350z m-275 -577
c23 -59 43 -109 45 -111 2 -2 11 21 21 51 16 51 16 58 0 102 -19 58 -20 68 -4
63 6 -2 17 -20 23 -39 l12 -34 16 38 c9 20 21 37 27 37 12 0 8 -20 -16 -78
-13 -32 -11 -44 22 -132 3 -9 22 30 45 90 40 105 53 129 65 117 11 -11 -87
-257 -103 -257 -13 0 -22 17 -48 85 -6 17 -11 11 -28 -33 -13 -34 -25 -52 -35
-50 -8 2 -35 57 -63 128 -27 69 -49 126 -49 128 0 1 6 2 14 2 9 0 30 -40 56
-107z m330 -23 c0 -109 -2 -130 -15 -130 -13 0 -15 21 -15 130 0 109 2 130 15
130 13 0 15 -21 15 -130z m184 102 c8 -15 35 -74 60 -130 33 -75 41 -102 30
-102 -8 0 -22 16 -31 35 -17 35 -17 35 -85 35 l-68 0 -14 -35 c-8 -19 -22 -35
-30 -35 -19 0 -19 4 -6 28 5 9 32 65 59 125 27 59 54 107 60 107 6 0 17 -12
25 -28z m284 11 c2 -9 -10 -13 -42 -13 l-46 0 0 -115 c0 -96 -3 -115 -15 -115
-12 0 -15 19 -15 115 l0 115 -40 0 c-29 0 -40 4 -40 15 0 13 15 15 97 13 66
-2 98 -7 101 -15z m70 -117 c2 -113 1 -127 -13 -124 -14 3 -16 21 -16 126 0
67 0 125 1 128 0 3 6 4 13 2 8 -3 13 -41 15 -132z m173 32 l74 -102 3 102 c2
82 6 102 17 102 12 0 15 -22 15 -130 0 -107 -3 -130 -14 -130 -8 0 -48 45 -88
101 l-73 100 -3 -100 c-2 -81 -6 -101 -17 -101 -12 0 -15 22 -15 130 0 101 3
130 13 130 8 0 47 -46 88 -102z m355 86 c19 -9 34 -20 34 -23 0 -17 -13 -18
-38 -5 -98 51 -196 -41 -147 -136 19 -36 43 -50 89 -50 52 0 66 9 66 41 0 27
-3 29 -40 29 -29 0 -40 4 -40 15 0 12 13 15 55 15 l55 0 0 -50 c0 -45 -3 -51
-30 -65 -68 -35 -158 -5 -187 62 -27 66 -6 123 62 164 37 23 76 24 121 3z
m-298 -408 c-4 -28 -34 -44 -55 -30 -27 17 -27 43 -2 70 l22 24 19 -22 c10
-12 18 -31 16 -42z m-1100 24 c5 -13 3 -13 -11 -2 -19 16 -37 8 -37 -18 0 -24
18 -36 33 -21 17 17 31 13 17 -4 -19 -23 -49 -18 -62 10 -8 19 -8 28 2 40 16
19 51 16 58 -5z m82 12 c0 -5 -9 -17 -20 -27 -11 -10 -20 -21 -20 -26 0 -4 9
-5 20 -2 11 3 20 0 20 -6 0 -6 -13 -11 -30 -11 -35 0 -37 8 -10 43 l20 26 -22
4 c-17 3 -14 5 10 6 17 0 32 -3 32 -7z m35 -9 c6 -17 7 -17 16 0 6 9 15 17 21
17 6 0 3 -11 -6 -25 -9 -13 -17 -32 -17 -42 -1 -16 -2 -15 -6 2 -3 10 -12 29
-20 42 -9 13 -11 23 -5 23 5 0 13 -8 17 -17z m75 -12 c0 -21 6 -31 23 -36 19
-6 20 -8 4 -12 -32 -8 -47 5 -47 42 0 19 5 35 10 35 6 0 10 -13 10 -29z m70
-11 c0 -22 -4 -40 -10 -40 -5 0 -10 18 -10 40 0 22 5 40 10 40 6 0 10 -18 10
-40z m120 24 c0 -13 -3 -14 -15 -4 -16 13 -35 6 -35 -14 0 -20 27 -40 35 -26
3 5 11 10 17 10 7 0 6 -6 -2 -15 -30 -36 -83 3 -60 45 13 25 60 28 60 4z m40
1 c0 -8 7 -15 15 -15 8 0 15 7 15 15 0 8 5 15 10 15 6 0 10 -18 10 -40 0 -22
-4 -40 -10 -40 -5 0 -10 9 -10 20 0 11 -7 20 -15 20 -8 0 -15 -9 -15 -20 0
-11 -4 -20 -10 -20 -5 0 -10 18 -10 40 0 22 5 40 10 40 6 0 10 -7 10 -15z
m123 -25 c17 -44 16 -46 -13 -27 -17 10 -22 9 -30 -3 -5 -8 -12 -12 -15 -8 -8
8 21 78 33 78 5 0 16 -18 25 -40z m70 33 c-7 -2 -13 -20 -13 -39 0 -19 -4 -34
-10 -34 -5 0 -10 15 -10 34 0 24 -5 36 -17 39 -10 3 0 5 22 5 22 0 34 -2 28
-5z m37 -10 c0 -14 2 -14 20 2 11 10 20 13 20 7 0 -6 -4 -14 -10 -17 -6 -4 -4
-16 6 -31 20 -30 2 -32 -19 -1 l-16 22 0 -22 c-1 -41 -21 -24 -21 17 0 22 5
40 10 40 6 0 10 -7 10 -17z m80 -23 c0 -22 -4 -40 -10 -40 -5 0 -10 18 -10 40
0 22 5 40 10 40 6 0 10 -18 10 -40z m70 25 c0 -8 5 -15 10 -15 6 0 10 7 10 15
0 23 21 18 28 -7 5 -21 5 -21 15 3 7 18 11 20 14 8 2 -8 -1 -29 -8 -45 l-11
-29 -13 30 -13 30 -7 -27 c-9 -34 -21 -36 -29 -4 -3 13 -9 31 -12 40 -3 9 -1
16 5 16 6 0 11 -7 11 -15z m205 4 c4 -6 -4 -9 -21 -7 -21 2 -29 -2 -32 -16 -4
-20 16 -39 31 -29 5 3 3 9 -4 14 -18 11 -6 21 15 13 24 -9 15 -38 -12 -42 -42
-6 -69 37 -40 66 15 15 55 16 63 1z m173 -17 c-1 -15 1 -33 6 -40 4 -7 2 -12
-4 -12 -6 0 -13 7 -16 15 -8 21 -32 19 -37 -2 -3 -10 -5 1 -6 25 -1 40 0 42
29 42 27 0 30 -3 28 -28z m77 -9 c15 -36 12 -60 -5 -33 -8 12 -13 13 -30 2
-23 -14 -24 -8 -9 37 14 41 25 39 44 -6z m90 26 c4 -6 4 -13 0 -17 -4 -4 -10
-1 -12 6 -7 17 -30 15 -37 -4 -8 -22 13 -49 28 -34 16 16 30 12 16 -5 -19 -23
-54 -15 -58 13 -2 13 -1 30 2 38 6 16 52 19 61 3z m35 -4 c0 -8 7 -15 15 -15
8 0 15 7 15 15 0 8 5 15 10 15 6 0 10 -18 10 -40 0 -22 -4 -40 -10 -40 -5 0
-10 9 -10 20 0 11 -7 20 -15 20 -8 0 -15 -9 -15 -20 0 -11 -4 -20 -10 -20 -5
0 -10 18 -10 40 0 22 5 40 10 40 6 0 10 -7 10 -15z"/>
<path d="M1082 752 c-12 -32 -22 -61 -22 -65 0 -4 23 -7 50 -7 28 0 50 4 50 9
0 8 -50 121 -53 121 -1 0 -12 -26 -25 -58z"/>
<path d="M1664 446 c-8 -22 3 -49 19 -43 6 2 12 14 12 27 0 27 -22 39 -31 16z"/>
<path d="M1755 450 c-3 -5 3 -10 15 -10 12 0 18 5 15 10 -3 6 -10 10 -15 10
-5 0 -12 -4 -15 -10z"/>
</g>
</svg>
