<svg xmlns="http://www.w3.org/2000/svg" viewBox="0 0 37.234 44.192" width="$SIZE" height="$SIZE">
  <g transform="translate(-98.509,-52.280)">
    <path
      style="fill:$COLOR;fill-opacity:1;fill-rule:nonzero;stroke:none;stroke-width:0.03527778"
      d="m 103.962,57.733 c 7.270,-7.269 19.058,-7.270 26.328,0 7.270,7.270 7.270,19.057 0,26.328 l -11.879,11.879 c -0.709,0.709 -1.858,0.709 -2.569,0 L 103.962,84.061 c -7.270,-7.270 -7.270,-19.057 0,-26.328"
    />
    <path
      style="fill:#eff4f4"
      d="m 107.238,80.731 c 5.460,5.460 14.315,5.460 19.776,0 5.461,-5.461 5.461,-14.314 0,-19.775 -5.460,-5.461 -14.315,-5.461 -19.775,0 -5.461,5.461 -5.461,14.315 -7.1e-4,19.775"
    />
  </g>
  <g transform="matrix(0.04605033,0,0,0.04522715,9.4570869,9.2647563)">
    <path
      style="fill:$COLOR"
      d="M 260.08091,58.277763 9.3684853,2.7280576 9.7502673,409.08484 400.69424,409.3962 392.68501,200.2552 Z"
    />
  </g>
  <rect
    y="16.664757"
    x="12.760019"
    height="4.119945"
    width="4.1724973"
    style="fill:#eff4f4"
  />
  <rect
    style="fill:#eff4f4"
    id="rect2246-3"
    width="4.1724973"
    height="4.119945"
    x="20.088993"
    y="16.723083"
  />
  <rect
    y="22.347836"
    x="16.526724"
    height="5.6939707"
    width="4.1724973"
    style="fill:#eff4f4"
  />
</svg>
