<svg xmlns="http://www.w3.org/2000/svg" viewBox="0 0 37.234 44.192" width="$SIZE" height="$SIZE">
  <g transform="translate(-98.509,-52.280)">
    <path
      style="fill:$COLOR;fill-opacity:1;fill-rule:nonzero;stroke:none;stroke-width:0.03527778"
      d="m 103.962,57.733 c 7.270,-7.269 19.058,-7.270 26.328,0 7.270,7.270 7.270,19.057 0,26.328 l -11.879,11.879 c -0.709,0.709 -1.858,0.709 -2.569,0 L 103.962,84.061 c -7.270,-7.270 -7.270,-19.057 0,-26.328"
    />
    <path
      style="fill:#eff4f4"
      d="m 107.238,80.731 c 5.460,5.460 14.315,5.460 19.776,0 5.461,-5.461 5.461,-14.314 0,-19.775 -5.460,-5.461 -14.315,-5.461 -19.775,0 -5.461,5.461 -5.461,14.315 -7.1e-4,19.775"
    />
  </g>
  <g transform="translate(-92.003634,-50.630219)">
    <g transform="matrix(0.03527778,0,0,-0.03527778,84.368141,180.44381)">
      <path
        transform="matrix(2.8701967,0,0,-2.7577192,150.41474,4571.1683)"
        style="fill:$COLOR"
        d="m 255.93553,588.772 h 54.87428 L 208.90041,398.39729 106.99102,588.772 h 54.87428 l 47.03511,-141.42122 z"
      />
    </g>
    <rect
      style="fill:$COLOR"
      width="13.040935"
      height="1.7135603"
      x="104.47648"
      y="74.748978"
    />
  </g>
</svg>
