<svg xmlns="http://www.w3.org/2000/svg" viewBox="0 0 37.234 44.192" width="$SIZE" height="$SIZE">
  <g transform="translate(-98.509,-52.280)">
    <path
      style="fill:$COLOR;fill-opacity:1;fill-rule:nonzero;stroke:none;stroke-width:0.03527778"
      d="m 103.962,57.733 c 7.270,-7.269 19.058,-7.270 26.328,0 7.270,7.270 7.270,19.057 0,26.328 l -11.879,11.879 c -0.709,0.709 -1.858,0.709 -2.569,0 L 103.962,84.061 c -7.270,-7.270 -7.270,-19.057 0,-26.328"
    />
    <path
      style="fill:#eff4f4"
      d="m 107.238,80.731 c 5.460,5.460 14.315,5.460 19.776,0 5.461,-5.461 5.461,-14.314 0,-19.775 -5.460,-5.461 -14.315,-5.461 -19.775,0 -5.461,5.461 -5.461,14.315 -7.1e-4,19.775"
    />
  </g>
  <g transform="translate(-105.81652,-49.933376)">
    <path
      d="m 124.95195,55.46788 -7.67291,7.905393 h 2.38125 l 5.29166,-5.55625 5.29167,5.55625 2.35778,0.0059 z"
      style="fill:$COLOR"
    />
    <path
      d="m 119.92487,63.553075 2.11667,-2.065925 v 18.851566 h -2.11667 z"
      style="fill:$COLOR"
    />
    <path
      d="m 129.84442,63.582587 -1.98205,-2.062363 v 18.819071 l 1.98812,0.02209 z"
      style="fill:$COLOR"
    />
    <rect
      y="66.778816"
      x="122.30611"
      height="1.6536446"
      width="5.2916636"
      style="fill:$COLOR"
    />
    <rect
      y="63.669964"
      x="122.30611"
      height="1.5875013"
      width="5.2916632"
      style="fill:$COLOR"
    />
  </g>
</svg>
