<svg
   xmlns:dc="http://purl.org/dc/elements/1.1/"
   xmlns:cc="http://creativecommons.org/ns#"
   xmlns:rdf="http://www.w3.org/1999/02/22-rdf-syntax-ns#"
   xmlns:svg="http://www.w3.org/2000/svg"
   xmlns="http://www.w3.org/2000/svg"
   xmlns:sodipodi="http://sodipodi.sourceforge.net/DTD/sodipodi-0.dtd"
   xmlns:inkscape="http://www.inkscape.org/namespaces/inkscape"
   id="svg1123"
   version="1.1"
   viewBox="0 0 37.2341 44.192669"
   height="44.192669mm"
   width="37.2341mm"
   sodipodi:docname="waterfront.svg"
   inkscape:version="1.0 (4035a4fb49, 2020-05-01)">
  <sodipodi:namedview
     inkscape:document-rotation="0"
     pagecolor="#ffffff"
     bordercolor="#666666"
     borderopacity="1"
     objecttolerance="10"
     gridtolerance="10"
     guidetolerance="10"
     inkscape:pageopacity="0"
     inkscape:pageshadow="2"
     inkscape:window-width="2554"
     inkscape:window-height="1382"
     id="namedview434"
     showgrid="false"
     inkscape:zoom="7.6933218"
     inkscape:cx="111.14154"
     inkscape:cy="72.970997"
     inkscape:window-x="1920"
     inkscape:window-y="26"
     inkscape:window-maximized="0"
     inkscape:current-layer="svg1123" />
  <path
     d="m 5.45253,5.452666 c 7.270046,-7.269692 19.058116,-7.27075 26.328506,0 7.27075,7.270396 7.27075,19.05776 0,26.328121 l -11.87979,11.879508 c -0.70979,0.70983 -1.85878,0.70983 -2.56928,0 L 5.45253,31.780787 c -7.27004,-7.270361 -7.27004,-19.057725 0,-26.328121"
     style="fill:#55ddff;fill-opacity:1;fill-rule:nonzero;stroke:none;stroke-width:0.0352778"
     id="path3760-3" />
  <path
     d="m 8.728776,28.451024 c 5.46065,5.460894 14.31537,5.460894 19.77602,0 5.461,-5.461423 5.461,-14.314381 0,-19.775734 -5.46065,-5.461352 -14.31537,-5.461352 -19.77531,0 -5.460996,5.461353 -5.460996,14.315017 -7.2e-4,19.775734"
     style="fill:#eff4f4;fill-opacity:1;fill-rule:nonzero;stroke:none;stroke-width:0.0352778"
     id="path3762-6" />
  <g
     id="g56"
     transform="matrix(0.04220272,0,0,0.04220272,10.417859,9.8221765)" />
  <g
     id="g58"
     transform="matrix(0.04220272,0,0,0.04220272,10.417859,9.8221765)" />
  <g
     id="g60"
     transform="matrix(0.04220272,0,0,0.04220272,10.417859,9.8221765)" />
  <g
     id="g62"
     transform="matrix(0.04220272,0,0,0.04220272,10.417859,9.8221765)" />
  <g
     id="g64"
     transform="matrix(0.04220272,0,0,0.04220272,10.417859,9.8221765)" />
  <g
     id="g66"
     transform="matrix(0.04220272,0,0,0.04220272,10.417859,9.8221765)" />
  <g
     id="g68"
     transform="matrix(0.04220272,0,0,0.04220272,10.417859,9.8221765)" />
  <g
     id="g70"
     transform="matrix(0.04220272,0,0,0.04220272,10.417859,9.8221765)" />
  <g
     id="g72"
     transform="matrix(0.04220272,0,0,0.04220272,10.417859,9.8221765)" />
  <g
     id="g74"
     transform="matrix(0.04220272,0,0,0.04220272,10.417859,9.8221765)" />
  <g
     id="g76"
     transform="matrix(0.04220272,0,0,0.04220272,10.417859,9.8221765)" />
  <g
     id="g78"
     transform="matrix(0.04220272,0,0,0.04220272,10.417859,9.8221765)" />
  <g
     id="g80"
     transform="matrix(0.04220272,0,0,0.04220272,10.417859,9.8221765)" />
  <g
     id="g82"
     transform="matrix(0.04220272,0,0,0.04220272,10.417859,9.8221765)" />
  <g
     id="g84"
     transform="matrix(0.04220272,0,0,0.04220272,10.417859,9.8221765)" />
  <g
     id="g6"
     transform="matrix(0.04951518,0,0,0.04951518,9.1100344,9.0559221)"
     style="fill:#2ad4ff">
    <g
       id="g4"
       style="fill:#2ad4ff">
      <path
         sodipodi:nodetypes="sssscccccsccsccscccccssss"
         id="path2"
         d="M 379.32,42.158 341.856,4.694 c -6.248,-6.248 -16.376,-6.248 -22.624,0 -6.248,6.248 -6.248,16.376 0,22.624 l 7.416,7.416 -121.992,121.984 c -11.976,-7.984 -25.344,-11.856 -39.92,-11.376 -44.592,1.304 -84.408,43.736 -88.824,48.592 L 4.688,265.158 c -3,3.008 -4.688,7.08 -4.688,11.32 0,4.24 1.688,8.312 4.688,11.312 l 45.608,45.568 c 0.056,0.064 0.096,0.128 0.16,0.192 0.064,0.064 0.136,0.096 0.192,0.16 l 45.656,45.616 c 3.12,3.112 7.208,4.672 11.296,4.672 4.096,0 8.192,-1.56 11.312,-4.688 l 71.264,-71.256 c 4.648,-4.264 47.152,-44.512 48.328,-89.224 0.376,-14.416 -3.424,-27.624 -11.248,-39.456 l 122.016,-122.016 7.424,7.424 c 3.128,3.128 7.216,4.688 11.312,4.688 4.096,0 8.184,-1.56 11.312,-4.688 6.248,-6.248 6.248,-16.376 0,-22.624 z"
         style="fill:#2ad4ff" />
    </g>
  </g>
  <g
     id="g8"
     transform="matrix(0.03439536,0,0,0.03439536,15.556568,16.785953)" />
  <g
     id="g10"
     transform="matrix(0.03439536,0,0,0.03439536,15.556568,16.785953)" />
  <g
     id="g12"
     transform="matrix(0.03439536,0,0,0.03439536,15.556568,16.785953)" />
  <g
     id="g14"
     transform="matrix(0.03439536,0,0,0.03439536,15.556568,16.785953)" />
  <g
     id="g16"
     transform="matrix(0.03439536,0,0,0.03439536,15.556568,16.785953)" />
  <g
     id="g18"
     transform="matrix(0.03439536,0,0,0.03439536,15.556568,16.785953)" />
  <g
     id="g20"
     transform="matrix(0.03439536,0,0,0.03439536,15.556568,16.785953)" />
  <g
     id="g22"
     transform="matrix(0.03439536,0,0,0.03439536,15.556568,16.785953)" />
  <g
     id="g24"
     transform="matrix(0.03439536,0,0,0.03439536,15.556568,16.785953)" />
  <g
     id="g26"
     transform="matrix(0.03439536,0,0,0.03439536,15.556568,16.785953)" />
  <g
     id="g28"
     transform="matrix(0.03439536,0,0,0.03439536,15.556568,16.785953)" />
  <g
     id="g30"
     transform="matrix(0.03439536,0,0,0.03439536,15.556568,16.785953)" />
  <g
     id="g32"
     transform="matrix(0.03439536,0,0,0.03439536,15.556568,16.785953)" />
  <g
     id="g34"
     transform="matrix(0.03439536,0,0,0.03439536,15.556568,16.785953)" />
  <g
     id="g36"
     transform="matrix(0.03439536,0,0,0.03439536,15.556568,16.785953)" />
</svg>
